<svg width="13" height="30" viewBox="0 0 13 30" fill="none" xmlns="http://www.w3.org/2000/svg">
<g clip-path="url(#clip0_199_479)">
<path d="M8.5119 9.13046H12.7319L12.2393 13.7938H8.5119V27.3242H2.91255V13.7938H0.121094V9.13046H2.91255V6.32258C2.91255 4.33024 3.38327 2.8223 4.32471 1.79877C5.26614 0.775232 6.81513 0.263464 8.97167 0.263464H12.6991V4.92685H10.3674C9.94047 4.92685 9.59838 4.96242 9.34113 5.03358C9.08387 5.10473 8.89778 5.23336 8.78283 5.41946C8.66789 5.60555 8.594 5.79439 8.56116 5.98596C8.52832 6.17753 8.5119 6.44847 8.5119 6.79877V9.13046Z" fill="black"/>
</g>
<defs>
<clipPath id="clip0_199_479">
<rect width="12.8571" height="30" fill="white" transform="matrix(1 0 0 -1 0 30)"/>
</clipPath>
</defs>
</svg>
