<svg width="13" height="13" viewBox="0 0 13 13" fill="none" xmlns="http://www.w3.org/2000/svg">
<path d="M11.052 10.9272V5.9617H10.0175C10.1197 6.28354 10.1708 6.61815 10.1708 6.96554C10.1708 7.60921 10.0073 8.20308 9.68037 8.74715C9.35342 9.29121 8.90898 9.7216 8.34703 10.0383C7.78509 10.3551 7.17207 10.5134 6.50795 10.5134C5.50157 10.5134 4.64078 10.1673 3.92558 9.47511C3.21038 8.78291 2.85278 7.94638 2.85278 6.96554C2.85278 6.61815 2.90387 6.28354 3.00604 5.9617H1.92558V10.9272C1.92558 11.06 1.97028 11.1712 2.05968 11.2606C2.14908 11.35 2.26019 11.3947 2.39301 11.3947H10.5846C10.7123 11.3947 10.8221 11.35 10.9141 11.2606C11.006 11.1712 11.052 11.06 11.052 10.9272ZM8.18228 8.46362C8.18228 8.46362 8.29786 8.35187 8.52903 8.12837C8.76019 7.90487 8.87577 7.47639 8.87577 6.84293C8.87577 6.20947 8.64461 5.66924 8.18228 5.22224C7.71996 4.77524 7.16185 4.55174 6.50795 4.55174C5.85917 4.55174 5.30361 4.77524 4.84129 5.22224C4.37896 5.66924 4.1478 6.20947 4.1478 6.84293C4.1478 7.47639 4.37896 8.01662 4.84129 8.46362C5.30361 8.91062 5.85917 9.13412 6.50795 9.13412C7.16185 9.13412 7.71996 8.91062 8.18228 8.46362ZM11.052 4.08431V2.81994C11.052 2.6769 11.0009 2.55302 10.8988 2.44829C10.7966 2.34357 10.6714 2.29121 10.5233 2.29121H9.18995C9.0418 2.29121 8.91664 2.34357 8.81447 2.44829C8.7123 2.55302 8.66121 2.6769 8.66121 2.81994V4.08431C8.66121 4.23246 8.7123 4.35762 8.81447 4.45979C8.91664 4.56196 9.0418 4.61305 9.18995 4.61305H10.5233C10.6714 4.61305 10.7966 4.56196 10.8988 4.45979C11.0009 4.35762 11.052 4.23246 11.052 4.08431ZM12.3853 2.49044V11.2414C12.3853 11.6552 12.2372 12.0102 11.9409 12.3065C11.6446 12.6028 11.2896 12.751 10.8758 12.751H2.12481C1.71102 12.751 1.35598 12.6028 1.05968 12.3065C0.763383 12.0102 0.615234 11.6552 0.615234 11.2414V2.49044C0.615234 2.07665 0.763383 1.7216 1.05968 1.42531C1.35598 1.12901 1.71102 0.980862 2.12481 0.980862H10.8758C11.2896 0.980862 11.6446 1.12901 11.9409 1.42531C12.2372 1.7216 12.3853 2.07665 12.3853 2.49044Z" fill="white"/>
</svg>
