<svg width="27" height="30" viewBox="0 0 27 30" fill="none" xmlns="http://www.w3.org/2000/svg">
<g clip-path="url(#clip0_199_483)">
<path d="M23.3255 23.4162V12.7758H21.1087C21.3277 13.4654 21.4371 14.1825 21.4371 14.9268C21.4371 16.3062 21.0868 17.5787 20.3862 18.7446C19.6856 19.9104 18.7332 20.8327 17.5291 21.5114C16.3249 22.1901 15.0113 22.5295 13.5882 22.5295C11.4317 22.5295 9.5871 21.7878 8.05453 20.3045C6.52197 18.8212 5.75568 17.0287 5.75568 14.9268C5.75568 14.1825 5.86515 13.4654 6.08409 12.7758H3.76882V23.4162C3.76882 23.7008 3.8646 23.9389 4.05618 24.1305C4.24775 24.322 4.48584 24.4178 4.77046 24.4178H22.3238C22.5975 24.4178 22.8329 24.322 23.0299 24.1305C23.2269 23.9389 23.3255 23.7008 23.3255 23.4162ZM17.176 18.137C17.176 18.137 17.4237 17.8976 17.9191 17.4186C18.4144 16.9397 18.6621 16.0215 18.6621 14.6641C18.6621 13.3067 18.1667 12.1491 17.176 11.1912C16.1853 10.2334 14.9894 9.75443 13.5882 9.75443C12.1979 9.75443 11.0075 10.2334 10.0168 11.1912C9.02607 12.1491 8.53072 13.3067 8.53072 14.6641C8.53072 16.0215 9.02607 17.1792 10.0168 18.137C11.0075 19.0949 12.1979 19.5738 13.5882 19.5738C14.9894 19.5738 16.1853 19.0949 17.176 18.137ZM23.3255 8.75279V6.04343C23.3255 5.73692 23.216 5.47145 22.9971 5.24704C22.7781 5.02263 22.5099 4.91043 22.1925 4.91043H19.3353C19.0179 4.91043 18.7497 5.02263 18.5307 5.24704C18.3118 5.47145 18.2023 5.73692 18.2023 6.04343V8.75279C18.2023 9.07025 18.3118 9.33845 18.5307 9.55739C18.7497 9.77633 19.0179 9.8858 19.3353 9.8858H22.1925C22.5099 9.8858 22.7781 9.77633 22.9971 9.55739C23.216 9.33845 23.3255 9.07025 23.3255 8.75279ZM26.1826 5.33736V24.0894C26.1826 24.9761 25.8652 25.7369 25.2302 26.3718C24.5953 27.0068 23.8345 27.3242 22.9478 27.3242H4.19575C3.30905 27.3242 2.54824 27.0068 1.91332 26.3718C1.2784 25.7369 0.960938 24.9761 0.960938 24.0894V5.33736C0.960938 4.45066 1.2784 3.68985 1.91332 3.05493C2.54824 2.42001 3.30905 2.10254 4.19575 2.10254H22.9478C23.8345 2.10254 24.5953 2.42001 25.2302 3.05493C25.8652 3.68985 26.1826 4.45066 26.1826 5.33736Z" fill="black"/>
</g>
<defs>
<clipPath id="clip0_199_483">
<rect width="25.7143" height="30" fill="white" transform="matrix(1 0 0 -1 0.714844 30)"/>
</clipPath>
</defs>
</svg>
