<svg width="12" height="12" viewBox="0 0 12 12" fill="none" xmlns="http://www.w3.org/2000/svg">
<path d="M11.6791 9.18111C11.6791 9.3289 11.6517 9.52184 11.597 9.75993C11.5422 9.99803 11.4848 10.1855 11.4246 10.3223C11.3096 10.596 10.9757 10.8861 10.4229 11.1926C9.90841 11.4718 9.39938 11.6113 8.89582 11.6113C8.74804 11.6113 8.60436 11.6017 8.46479 11.5826C8.32522 11.5634 8.16785 11.5292 7.9927 11.48C7.81755 11.4307 7.68756 11.391 7.60272 11.3609C7.51788 11.3308 7.36599 11.2747 7.14706 11.1926C6.92812 11.1105 6.79402 11.0612 6.74476 11.0448C6.20836 10.8533 5.72943 10.6261 5.30797 10.3634C4.60737 9.93098 3.88351 9.34121 3.13638 8.59409C2.38926 7.84696 1.79949 7.1231 1.36709 6.42249C1.10436 6.00104 0.877214 5.52211 0.685643 4.98571C0.669223 4.93645 0.619962 4.80235 0.53786 4.58341C0.455758 4.36448 0.399655 4.21259 0.369551 4.12775C0.339447 4.04291 0.299765 3.91292 0.250504 3.73777C0.201242 3.56261 0.167033 3.40525 0.147876 3.26568C0.128719 3.12611 0.119141 2.98243 0.119141 2.83465C0.119141 2.33109 0.258714 1.82206 0.53786 1.30755C0.844373 0.754733 1.13447 0.420853 1.40814 0.30591C1.54498 0.245702 1.73244 0.188231 1.97054 0.133496C2.20863 0.0787611 2.40157 0.0513945 2.54935 0.0513945C2.62598 0.0513945 2.68345 0.0596046 2.72177 0.076025C2.82029 0.108866 2.96534 0.316856 3.15691 0.699999C3.21712 0.803994 3.29922 0.951777 3.40321 1.14335C3.50721 1.33492 3.60299 1.5087 3.69057 1.66469C3.77814 1.82069 3.86298 1.9671 3.94508 2.10394C3.9615 2.12583 4.0094 2.19425 4.08876 2.30919C4.16813 2.42414 4.22697 2.52129 4.26528 2.60066C4.3036 2.68002 4.32275 2.75802 4.32275 2.83465C4.32275 2.94411 4.24476 3.08095 4.08876 3.24515C3.93277 3.40936 3.76309 3.55988 3.57973 3.69671C3.39637 3.83355 3.22669 3.9786 3.0707 4.13185C2.91471 4.28511 2.83671 4.411 2.83671 4.50952C2.83671 4.55878 2.85039 4.62036 2.87776 4.69425C2.90513 4.76814 2.92839 4.82425 2.94755 4.86256C2.9667 4.90087 3.00502 4.96656 3.06249 5.0596C3.11996 5.15265 3.15143 5.20465 3.15691 5.2156C3.57289 5.96546 4.04908 6.60859 4.58548 7.14499C5.12188 7.68139 5.76501 8.15758 6.51487 8.57356C6.52582 8.57903 6.57782 8.61051 6.67086 8.66798C6.76391 8.72545 6.82959 8.76376 6.86791 8.78292C6.90622 8.80208 6.96233 8.82534 7.03622 8.85271C7.11011 8.88007 7.17169 8.89376 7.22095 8.89376C7.31947 8.89376 7.44536 8.81576 7.59861 8.65977C7.75187 8.50377 7.89692 8.3341 8.03375 8.15074C8.17059 7.96738 8.32111 7.7977 8.48531 7.64171C8.64952 7.48571 8.78635 7.40772 8.89582 7.40772C8.97245 7.40772 9.05045 7.42687 9.12981 7.46519C9.20918 7.5035 9.30633 7.56234 9.42128 7.64171C9.53622 7.72107 9.60464 7.76896 9.62653 7.78538C9.76337 7.86749 9.90978 7.95232 10.0658 8.0399C10.2218 8.12748 10.3955 8.22326 10.5871 8.32726C10.7787 8.43125 10.9265 8.51335 11.0305 8.57356C11.4136 8.76513 11.6216 8.91018 11.6544 9.0087C11.6709 9.04702 11.6791 9.10449 11.6791 9.18111Z" fill="white"/>
</svg>
