<svg width="29" height="30" viewBox="0 0 29 30" fill="none" xmlns="http://www.w3.org/2000/svg">
<path d="M27.0035 6.69951C26.27 7.77231 25.3833 8.68638 24.3434 9.44171C24.3543 9.59497 24.3598 9.82485 24.3598 10.1314C24.3598 11.5545 24.1518 12.9748 23.7358 14.3925C23.3199 15.8101 22.6877 17.1702 21.8393 18.4729C20.9909 19.7756 19.981 20.9278 18.8097 21.9294C17.6384 22.931 16.2263 23.7302 14.5733 24.3268C12.9203 24.9234 11.1524 25.2217 9.2695 25.2217C6.30289 25.2217 3.58805 24.428 1.125 22.8407C1.50814 22.8845 1.93507 22.9064 2.40579 22.9064C4.86884 22.9064 7.0637 22.1511 8.99035 20.6404C7.84093 20.6185 6.81192 20.2655 5.90333 19.5813C4.99473 18.8971 4.37076 18.0241 4.0314 16.9622C4.39265 17.017 4.72653 17.0443 5.03305 17.0443C5.50376 17.0443 5.96901 16.9841 6.42878 16.8637C5.20272 16.6119 4.1874 16.0016 3.3828 15.0328C2.5782 14.064 2.1759 12.9392 2.1759 11.6585V11.5928C2.92029 12.0088 3.71942 12.2332 4.57328 12.266C3.85078 11.7844 3.27607 11.1549 2.84914 10.3777C2.42221 9.60044 2.20874 8.75753 2.20874 7.84894C2.20874 6.88561 2.44958 5.99344 2.93124 5.17242C4.25582 6.80351 5.86775 8.10893 7.76704 9.08867C9.66632 10.0684 11.6997 10.613 13.8672 10.7225C13.7796 10.3065 13.7358 9.90148 13.7358 9.50739C13.7358 8.04051 14.2531 6.78983 15.2876 5.75534C16.322 4.72086 17.5727 4.20362 19.0396 4.20362C20.5722 4.20362 21.8639 4.76191 22.9148 5.87849C24.108 5.64861 25.2301 5.22168 26.281 4.59771C25.876 5.8566 25.0987 6.83088 23.9493 7.52053C24.9674 7.41106 25.9854 7.13739 27.0035 6.69951Z" fill="black"/>
</svg>
