<svg width="13" height="14" viewBox="0 0 13 14" fill="none" xmlns="http://www.w3.org/2000/svg">
<path d="M12.2016 3.12585C11.8594 3.62649 11.4456 4.05306 10.9602 4.40555C10.9654 4.47707 10.9679 4.58435 10.9679 4.72739C10.9679 5.3915 10.8708 6.05433 10.6767 6.71589C10.4826 7.37745 10.1876 8.01219 9.79167 8.62011C9.39575 9.22802 8.92449 9.7657 8.37787 10.2331C7.83126 10.7006 7.17225 11.0735 6.40086 11.3519C5.62947 11.6303 4.80444 11.7695 3.92577 11.7695C2.54135 11.7695 1.27443 11.3992 0.125 10.6584C0.303799 10.6789 0.503033 10.6891 0.722701 10.6891C1.87213 10.6891 2.89639 10.3366 3.7955 9.6316C3.2591 9.62138 2.7789 9.45663 2.35489 9.13735C1.93087 8.81806 1.63969 8.41066 1.48132 7.91513C1.6499 7.94067 1.80572 7.95344 1.94875 7.95344C2.16842 7.95344 2.38554 7.92534 2.6001 7.86915C2.02794 7.75165 1.55412 7.46685 1.17864 7.01474C0.803161 6.56263 0.615421 6.03773 0.615421 5.44003V5.40938C0.962803 5.6035 1.33573 5.70823 1.7342 5.72355C1.39703 5.49878 1.12883 5.20504 0.929598 4.84233C0.730364 4.47962 0.630747 4.08626 0.630747 3.66225C0.630747 3.2127 0.743135 2.79635 0.967912 2.41321C1.58605 3.17439 2.33828 3.78358 3.22462 4.2408C4.11095 4.69801 5.05987 4.95216 6.07136 5.00325C6.03049 4.80912 6.01006 4.62011 6.01006 4.4362C6.01006 3.75165 6.25144 3.168 6.7342 2.68524C7.21695 2.20248 7.80061 1.9611 8.48515 1.9611C9.20035 1.9611 9.80316 2.22164 10.2936 2.74271C10.8504 2.63543 11.374 2.4362 11.8645 2.14501C11.6754 2.73249 11.3127 3.18716 10.7763 3.509C11.2514 3.45791 11.7265 3.3302 12.2016 3.12585Z" fill="white"/>
</svg>
